<mxfile host="app.diagrams.net" agent="Mozilla/5.0 (Windows NT 10.0; Win64; x64) AppleWebKit/537.36 (KHTML, like Gecko) Chrome/134.0.0.0 Safari/537.36" version="26.1.0">
  <diagram name="Page-1" id="Le4XI335XZqRiCwkGQDE">
    <mxGraphModel dx="1500" dy="804" grid="1" gridSize="10" guides="1" tooltips="1" connect="1" arrows="1" fold="1" page="1" pageScale="1" pageWidth="850" pageHeight="1100" math="0" shadow="0">
      <root>
        <mxCell id="0" />
        <mxCell id="1" parent="0" />
        <mxCell id="uFJ8NuCEC3rtq5b0tR9Z-16" style="edgeStyle=orthogonalEdgeStyle;rounded=0;orthogonalLoop=1;jettySize=auto;html=1;exitX=0.5;exitY=1;exitDx=0;exitDy=0;entryX=0.5;entryY=0;entryDx=0;entryDy=0;curved=1;endArrow=none;startFill=0;" parent="1" source="7_Y2e456IkaExxH9OMLO-79" target="uFJ8NuCEC3rtq5b0tR9Z-7" edge="1">
          <mxGeometry relative="1" as="geometry" />
        </mxCell>
        <mxCell id="7_Y2e456IkaExxH9OMLO-79" value="Users" style="rounded=0;whiteSpace=wrap;html=1;" parent="1" vertex="1">
          <mxGeometry x="950" y="410" width="120" height="60" as="geometry" />
        </mxCell>
        <mxCell id="7_Y2e456IkaExxH9OMLO-80" value="user_id" style="ellipse;whiteSpace=wrap;html=1;fontStyle=4" parent="1" vertex="1">
          <mxGeometry x="830" y="380" width="60" height="40" as="geometry" />
        </mxCell>
        <mxCell id="7_Y2e456IkaExxH9OMLO-81" value="name" style="ellipse;whiteSpace=wrap;html=1;fontStyle=0" parent="1" vertex="1">
          <mxGeometry x="910" y="300" width="50" height="40" as="geometry" />
        </mxCell>
        <mxCell id="7_Y2e456IkaExxH9OMLO-82" value="username" style="ellipse;whiteSpace=wrap;html=1;fontStyle=0" parent="1" vertex="1">
          <mxGeometry x="970" y="310" width="80" height="40" as="geometry" />
        </mxCell>
        <mxCell id="7_Y2e456IkaExxH9OMLO-84" value="password" style="ellipse;whiteSpace=wrap;html=1;fontStyle=0" parent="1" vertex="1">
          <mxGeometry x="1050" y="330" width="80" height="40" as="geometry" />
        </mxCell>
        <mxCell id="7_Y2e456IkaExxH9OMLO-85" value="role" style="ellipse;whiteSpace=wrap;html=1;fontStyle=0" parent="1" vertex="1">
          <mxGeometry x="860" y="330" width="50" height="40" as="geometry" />
        </mxCell>
        <mxCell id="7_Y2e456IkaExxH9OMLO-92" value="" style="endArrow=none;html=1;rounded=0;exitX=1;exitY=0.25;exitDx=0;exitDy=0;" parent="1" source="7_Y2e456IkaExxH9OMLO-79" edge="1">
          <mxGeometry width="50" height="50" relative="1" as="geometry">
            <mxPoint x="1040" y="420" as="sourcePoint" />
            <mxPoint x="1090" y="370" as="targetPoint" />
          </mxGeometry>
        </mxCell>
        <mxCell id="7_Y2e456IkaExxH9OMLO-93" value="" style="endArrow=none;html=1;rounded=0;exitX=0.75;exitY=0;exitDx=0;exitDy=0;" parent="1" source="7_Y2e456IkaExxH9OMLO-79" edge="1">
          <mxGeometry width="50" height="50" relative="1" as="geometry">
            <mxPoint x="970" y="375" as="sourcePoint" />
            <mxPoint x="1020" y="350" as="targetPoint" />
          </mxGeometry>
        </mxCell>
        <mxCell id="7_Y2e456IkaExxH9OMLO-94" value="" style="endArrow=none;html=1;rounded=0;exitX=0.5;exitY=1;exitDx=0;exitDy=0;entryX=0.5;entryY=0;entryDx=0;entryDy=0;" parent="1" source="7_Y2e456IkaExxH9OMLO-81" target="7_Y2e456IkaExxH9OMLO-79" edge="1">
          <mxGeometry width="50" height="50" relative="1" as="geometry">
            <mxPoint x="1020" y="390" as="sourcePoint" />
            <mxPoint x="1030" y="360" as="targetPoint" />
          </mxGeometry>
        </mxCell>
        <mxCell id="7_Y2e456IkaExxH9OMLO-95" value="" style="endArrow=none;html=1;rounded=0;exitX=1;exitY=1;exitDx=0;exitDy=0;entryX=0.25;entryY=0;entryDx=0;entryDy=0;" parent="1" source="7_Y2e456IkaExxH9OMLO-85" target="7_Y2e456IkaExxH9OMLO-79" edge="1">
          <mxGeometry width="50" height="50" relative="1" as="geometry">
            <mxPoint x="945" y="350" as="sourcePoint" />
            <mxPoint x="990" y="390" as="targetPoint" />
          </mxGeometry>
        </mxCell>
        <mxCell id="7_Y2e456IkaExxH9OMLO-98" value="" style="endArrow=none;html=1;rounded=0;exitX=1;exitY=0.5;exitDx=0;exitDy=0;entryX=0;entryY=0.5;entryDx=0;entryDy=0;" parent="1" source="7_Y2e456IkaExxH9OMLO-80" target="7_Y2e456IkaExxH9OMLO-79" edge="1">
          <mxGeometry width="50" height="50" relative="1" as="geometry">
            <mxPoint x="913" y="374" as="sourcePoint" />
            <mxPoint x="960" y="390" as="targetPoint" />
          </mxGeometry>
        </mxCell>
        <mxCell id="uFJ8NuCEC3rtq5b0tR9Z-15" style="edgeStyle=orthogonalEdgeStyle;rounded=0;orthogonalLoop=1;jettySize=auto;html=1;exitX=1;exitY=0.5;exitDx=0;exitDy=0;entryX=0.5;entryY=0;entryDx=0;entryDy=0;curved=1;endArrow=none;startFill=0;" parent="1" source="7_Y2e456IkaExxH9OMLO-99" target="uFJ8NuCEC3rtq5b0tR9Z-4" edge="1">
          <mxGeometry relative="1" as="geometry" />
        </mxCell>
        <mxCell id="7_Y2e456IkaExxH9OMLO-99" value="Room" style="rounded=0;whiteSpace=wrap;html=1;" parent="1" vertex="1">
          <mxGeometry x="300" y="580" width="120" height="60" as="geometry" />
        </mxCell>
        <mxCell id="7_Y2e456IkaExxH9OMLO-100" value="room_id" style="ellipse;whiteSpace=wrap;html=1;fontStyle=4" parent="1" vertex="1">
          <mxGeometry x="200" y="570" width="70" height="40" as="geometry" />
        </mxCell>
        <mxCell id="7_Y2e456IkaExxH9OMLO-101" value="room_number" style="ellipse;whiteSpace=wrap;html=1;fontStyle=0" parent="1" vertex="1">
          <mxGeometry x="260" y="480" width="110" height="40" as="geometry" />
        </mxCell>
        <mxCell id="7_Y2e456IkaExxH9OMLO-102" value="price" style="ellipse;whiteSpace=wrap;html=1;fontStyle=0" parent="1" vertex="1">
          <mxGeometry x="370" y="500" width="80" height="40" as="geometry" />
        </mxCell>
        <mxCell id="7_Y2e456IkaExxH9OMLO-103" value="status" style="ellipse;whiteSpace=wrap;html=1;fontStyle=0" parent="1" vertex="1">
          <mxGeometry x="450" y="530" width="80" height="40" as="geometry" />
        </mxCell>
        <mxCell id="7_Y2e456IkaExxH9OMLO-104" value="room_type" style="ellipse;whiteSpace=wrap;html=1;fontStyle=0" parent="1" vertex="1">
          <mxGeometry x="210" y="520" width="90" height="40" as="geometry" />
        </mxCell>
        <mxCell id="7_Y2e456IkaExxH9OMLO-105" value="" style="endArrow=none;html=1;rounded=0;exitX=1;exitY=0.25;exitDx=0;exitDy=0;entryX=0.31;entryY=0.985;entryDx=0;entryDy=0;entryPerimeter=0;" parent="1" source="7_Y2e456IkaExxH9OMLO-99" target="7_Y2e456IkaExxH9OMLO-103" edge="1">
          <mxGeometry width="50" height="50" relative="1" as="geometry">
            <mxPoint x="440" y="610" as="sourcePoint" />
            <mxPoint x="480" y="560" as="targetPoint" />
          </mxGeometry>
        </mxCell>
        <mxCell id="7_Y2e456IkaExxH9OMLO-106" value="" style="endArrow=none;html=1;rounded=0;exitX=0.75;exitY=0;exitDx=0;exitDy=0;" parent="1" source="7_Y2e456IkaExxH9OMLO-99" edge="1">
          <mxGeometry width="50" height="50" relative="1" as="geometry">
            <mxPoint x="370" y="565" as="sourcePoint" />
            <mxPoint x="420" y="540" as="targetPoint" />
          </mxGeometry>
        </mxCell>
        <mxCell id="7_Y2e456IkaExxH9OMLO-107" value="" style="endArrow=none;html=1;rounded=0;exitX=0.5;exitY=1;exitDx=0;exitDy=0;entryX=0.5;entryY=0;entryDx=0;entryDy=0;" parent="1" source="7_Y2e456IkaExxH9OMLO-101" target="7_Y2e456IkaExxH9OMLO-99" edge="1">
          <mxGeometry width="50" height="50" relative="1" as="geometry">
            <mxPoint x="420" y="580" as="sourcePoint" />
            <mxPoint x="430" y="550" as="targetPoint" />
          </mxGeometry>
        </mxCell>
        <mxCell id="7_Y2e456IkaExxH9OMLO-108" value="" style="endArrow=none;html=1;rounded=0;exitX=1;exitY=1;exitDx=0;exitDy=0;entryX=0.25;entryY=0;entryDx=0;entryDy=0;" parent="1" source="7_Y2e456IkaExxH9OMLO-104" target="7_Y2e456IkaExxH9OMLO-99" edge="1">
          <mxGeometry width="50" height="50" relative="1" as="geometry">
            <mxPoint x="296.71530745727296" y="554.1884270203589" as="sourcePoint" />
            <mxPoint x="390" y="580" as="targetPoint" />
          </mxGeometry>
        </mxCell>
        <mxCell id="7_Y2e456IkaExxH9OMLO-109" value="" style="endArrow=none;html=1;rounded=0;exitX=1;exitY=0.5;exitDx=0;exitDy=0;entryX=0;entryY=0.5;entryDx=0;entryDy=0;" parent="1" source="7_Y2e456IkaExxH9OMLO-100" target="7_Y2e456IkaExxH9OMLO-99" edge="1">
          <mxGeometry width="50" height="50" relative="1" as="geometry">
            <mxPoint x="313" y="564" as="sourcePoint" />
            <mxPoint x="360" y="580" as="targetPoint" />
          </mxGeometry>
        </mxCell>
        <mxCell id="uFJ8NuCEC3rtq5b0tR9Z-17" style="edgeStyle=orthogonalEdgeStyle;rounded=0;orthogonalLoop=1;jettySize=auto;html=1;exitX=0.5;exitY=1;exitDx=0;exitDy=0;curved=1;endArrow=none;startFill=0;" parent="1" source="7_Y2e456IkaExxH9OMLO-110" target="uFJ8NuCEC3rtq5b0tR9Z-1" edge="1">
          <mxGeometry relative="1" as="geometry" />
        </mxCell>
        <mxCell id="7_Y2e456IkaExxH9OMLO-110" value="Guest" style="rounded=0;whiteSpace=wrap;html=1;" parent="1" vertex="1">
          <mxGeometry x="620" y="480" width="120" height="60" as="geometry" />
        </mxCell>
        <mxCell id="7_Y2e456IkaExxH9OMLO-111" value="guest_id" style="ellipse;whiteSpace=wrap;html=1;fontStyle=4" parent="1" vertex="1">
          <mxGeometry x="520" y="480" width="70" height="40" as="geometry" />
        </mxCell>
        <mxCell id="7_Y2e456IkaExxH9OMLO-112" value="document_number" style="ellipse;whiteSpace=wrap;html=1;fontStyle=0" parent="1" vertex="1">
          <mxGeometry x="510" y="420" width="140" height="40" as="geometry" />
        </mxCell>
        <mxCell id="7_Y2e456IkaExxH9OMLO-113" value="name" style="ellipse;whiteSpace=wrap;html=1;fontStyle=0" parent="1" vertex="1">
          <mxGeometry x="720" y="410" width="80" height="40" as="geometry" />
        </mxCell>
        <mxCell id="7_Y2e456IkaExxH9OMLO-114" value="phone" style="ellipse;whiteSpace=wrap;html=1;fontStyle=0" parent="1" vertex="1">
          <mxGeometry x="770" y="450" width="80" height="40" as="geometry" />
        </mxCell>
        <mxCell id="7_Y2e456IkaExxH9OMLO-116" value="" style="endArrow=none;html=1;rounded=0;exitX=1;exitY=0.25;exitDx=0;exitDy=0;entryX=0.035;entryY=0.725;entryDx=0;entryDy=0;entryPerimeter=0;" parent="1" source="7_Y2e456IkaExxH9OMLO-110" target="7_Y2e456IkaExxH9OMLO-114" edge="1">
          <mxGeometry width="50" height="50" relative="1" as="geometry">
            <mxPoint x="740" y="520" as="sourcePoint" />
            <mxPoint x="790" y="470" as="targetPoint" />
          </mxGeometry>
        </mxCell>
        <mxCell id="7_Y2e456IkaExxH9OMLO-117" value="" style="endArrow=none;html=1;rounded=0;exitX=0.75;exitY=0;exitDx=0;exitDy=0;entryX=0.245;entryY=0.945;entryDx=0;entryDy=0;entryPerimeter=0;" parent="1" source="7_Y2e456IkaExxH9OMLO-110" target="7_Y2e456IkaExxH9OMLO-113" edge="1">
          <mxGeometry width="50" height="50" relative="1" as="geometry">
            <mxPoint x="670" y="475" as="sourcePoint" />
            <mxPoint x="720" y="450" as="targetPoint" />
          </mxGeometry>
        </mxCell>
        <mxCell id="7_Y2e456IkaExxH9OMLO-118" value="" style="endArrow=none;html=1;rounded=0;exitX=0.777;exitY=0.915;exitDx=0;exitDy=0;entryX=0.5;entryY=0;entryDx=0;entryDy=0;exitPerimeter=0;" parent="1" source="7_Y2e456IkaExxH9OMLO-112" target="7_Y2e456IkaExxH9OMLO-110" edge="1">
          <mxGeometry width="50" height="50" relative="1" as="geometry">
            <mxPoint x="720" y="490" as="sourcePoint" />
            <mxPoint x="730" y="460" as="targetPoint" />
          </mxGeometry>
        </mxCell>
        <mxCell id="7_Y2e456IkaExxH9OMLO-120" value="" style="endArrow=none;html=1;rounded=0;exitX=1;exitY=0.5;exitDx=0;exitDy=0;entryX=0;entryY=0.5;entryDx=0;entryDy=0;" parent="1" source="7_Y2e456IkaExxH9OMLO-111" target="7_Y2e456IkaExxH9OMLO-110" edge="1">
          <mxGeometry width="50" height="50" relative="1" as="geometry">
            <mxPoint x="613" y="474" as="sourcePoint" />
            <mxPoint x="660" y="490" as="targetPoint" />
          </mxGeometry>
        </mxCell>
        <mxCell id="7_Y2e456IkaExxH9OMLO-131" value="Payments " style="rounded=0;whiteSpace=wrap;html=1;" parent="1" vertex="1">
          <mxGeometry x="1040" y="630" width="120" height="50" as="geometry" />
        </mxCell>
        <mxCell id="7_Y2e456IkaExxH9OMLO-132" value="payment_id" style="ellipse;whiteSpace=wrap;html=1;fontStyle=4" parent="1" vertex="1">
          <mxGeometry x="890" y="630" width="80" height="40" as="geometry" />
        </mxCell>
        <mxCell id="7_Y2e456IkaExxH9OMLO-133" value="payment_date" style="ellipse;whiteSpace=wrap;html=1;fontStyle=0" parent="1" vertex="1">
          <mxGeometry x="1000" y="560" width="110" height="40" as="geometry" />
        </mxCell>
        <mxCell id="7_Y2e456IkaExxH9OMLO-134" value="reservation_id" style="ellipse;whiteSpace=wrap;html=1;fontStyle=0" parent="1" vertex="1">
          <mxGeometry x="1130" y="560" width="100" height="40" as="geometry" />
        </mxCell>
        <mxCell id="7_Y2e456IkaExxH9OMLO-136" value="amount_paid " style="ellipse;whiteSpace=wrap;html=1;fontStyle=0" parent="1" vertex="1">
          <mxGeometry x="890" y="580" width="100" height="40" as="geometry" />
        </mxCell>
        <mxCell id="7_Y2e456IkaExxH9OMLO-138" value="" style="endArrow=none;html=1;rounded=0;exitX=0.75;exitY=0;exitDx=0;exitDy=0;" parent="1" source="7_Y2e456IkaExxH9OMLO-131" target="7_Y2e456IkaExxH9OMLO-134" edge="1">
          <mxGeometry width="50" height="50" relative="1" as="geometry">
            <mxPoint x="1050" y="615" as="sourcePoint" />
            <mxPoint x="1100" y="590" as="targetPoint" />
          </mxGeometry>
        </mxCell>
        <mxCell id="7_Y2e456IkaExxH9OMLO-139" value="" style="endArrow=none;html=1;rounded=0;exitX=0.5;exitY=1;exitDx=0;exitDy=0;entryX=0.5;entryY=0;entryDx=0;entryDy=0;" parent="1" source="7_Y2e456IkaExxH9OMLO-133" target="7_Y2e456IkaExxH9OMLO-131" edge="1">
          <mxGeometry width="50" height="50" relative="1" as="geometry">
            <mxPoint x="1100" y="630" as="sourcePoint" />
            <mxPoint x="1110" y="600" as="targetPoint" />
          </mxGeometry>
        </mxCell>
        <mxCell id="7_Y2e456IkaExxH9OMLO-140" value="" style="endArrow=none;html=1;rounded=0;exitX=1;exitY=1;exitDx=0;exitDy=0;entryX=0.25;entryY=0;entryDx=0;entryDy=0;" parent="1" source="7_Y2e456IkaExxH9OMLO-136" target="7_Y2e456IkaExxH9OMLO-131" edge="1">
          <mxGeometry width="50" height="50" relative="1" as="geometry">
            <mxPoint x="1025" y="590" as="sourcePoint" />
            <mxPoint x="1070" y="630" as="targetPoint" />
          </mxGeometry>
        </mxCell>
        <mxCell id="7_Y2e456IkaExxH9OMLO-141" value="" style="endArrow=none;html=1;rounded=0;exitX=1;exitY=0.5;exitDx=0;exitDy=0;entryX=0;entryY=0.5;entryDx=0;entryDy=0;" parent="1" source="7_Y2e456IkaExxH9OMLO-132" target="7_Y2e456IkaExxH9OMLO-131" edge="1">
          <mxGeometry width="50" height="50" relative="1" as="geometry">
            <mxPoint x="993" y="614" as="sourcePoint" />
            <mxPoint x="1040" y="630" as="targetPoint" />
          </mxGeometry>
        </mxCell>
        <mxCell id="1fL14fTM2-814Uq3JeYz-1" style="edgeStyle=orthogonalEdgeStyle;rounded=0;orthogonalLoop=1;jettySize=auto;html=1;exitX=0.657;exitY=0.02;exitDx=0;exitDy=0;entryX=0.5;entryY=1;entryDx=0;entryDy=0;curved=1;exitPerimeter=0;endSize=8;strokeColor=default;strokeWidth=2;" edge="1" parent="1" source="7_Y2e456IkaExxH9OMLO-164" target="uFJ8NuCEC3rtq5b0tR9Z-7">
          <mxGeometry relative="1" as="geometry" />
        </mxCell>
        <mxCell id="1fL14fTM2-814Uq3JeYz-2" style="edgeStyle=orthogonalEdgeStyle;rounded=0;orthogonalLoop=1;jettySize=auto;html=1;exitX=0.5;exitY=0;exitDx=0;exitDy=0;entryX=0.5;entryY=1;entryDx=0;entryDy=0;strokeWidth=2;" edge="1" parent="1" source="7_Y2e456IkaExxH9OMLO-164" target="uFJ8NuCEC3rtq5b0tR9Z-1">
          <mxGeometry relative="1" as="geometry" />
        </mxCell>
        <mxCell id="1fL14fTM2-814Uq3JeYz-3" style="edgeStyle=orthogonalEdgeStyle;rounded=0;orthogonalLoop=1;jettySize=auto;html=1;exitX=0.25;exitY=0;exitDx=0;exitDy=0;entryX=0.5;entryY=1;entryDx=0;entryDy=0;curved=1;strokeWidth=2;" edge="1" parent="1" source="7_Y2e456IkaExxH9OMLO-164" target="uFJ8NuCEC3rtq5b0tR9Z-4">
          <mxGeometry relative="1" as="geometry" />
        </mxCell>
        <mxCell id="1fL14fTM2-814Uq3JeYz-9" style="edgeStyle=orthogonalEdgeStyle;rounded=0;orthogonalLoop=1;jettySize=auto;html=1;exitX=0.847;exitY=-0.02;exitDx=0;exitDy=0;curved=1;strokeWidth=2;exitPerimeter=0;" edge="1" parent="1" source="7_Y2e456IkaExxH9OMLO-164" target="uFJ8NuCEC3rtq5b0tR9Z-11">
          <mxGeometry relative="1" as="geometry" />
        </mxCell>
        <mxCell id="7_Y2e456IkaExxH9OMLO-164" value="Reservation" style="rounded=0;whiteSpace=wrap;html=1;" parent="1" vertex="1">
          <mxGeometry x="620" y="830" width="120" height="50" as="geometry" />
        </mxCell>
        <mxCell id="7_Y2e456IkaExxH9OMLO-165" value="reservation_id" style="ellipse;whiteSpace=wrap;html=1;fontStyle=4" parent="1" vertex="1">
          <mxGeometry x="470" y="890" width="120" height="40" as="geometry" />
        </mxCell>
        <mxCell id="7_Y2e456IkaExxH9OMLO-166" value="room_id" style="ellipse;whiteSpace=wrap;html=1;fontStyle=0" parent="1" vertex="1">
          <mxGeometry x="590" y="910" width="110" height="40" as="geometry" />
        </mxCell>
        <mxCell id="7_Y2e456IkaExxH9OMLO-167" value="check_out" style="ellipse;whiteSpace=wrap;html=1;fontStyle=0" parent="1" vertex="1">
          <mxGeometry x="710" y="910" width="80" height="40" as="geometry" />
        </mxCell>
        <mxCell id="7_Y2e456IkaExxH9OMLO-168" value="status" style="ellipse;whiteSpace=wrap;html=1;fontStyle=0" parent="1" vertex="1">
          <mxGeometry x="780" y="860" width="80" height="40" as="geometry" />
        </mxCell>
        <mxCell id="7_Y2e456IkaExxH9OMLO-169" value="guest_id" style="ellipse;whiteSpace=wrap;html=1;fontStyle=0" parent="1" vertex="1">
          <mxGeometry x="500" y="840" width="90" height="40" as="geometry" />
        </mxCell>
        <mxCell id="7_Y2e456IkaExxH9OMLO-170" value="" style="endArrow=none;html=1;rounded=0;exitX=1;exitY=0.25;exitDx=0;exitDy=0;" parent="1" source="7_Y2e456IkaExxH9OMLO-164" target="7_Y2e456IkaExxH9OMLO-168" edge="1">
          <mxGeometry width="50" height="50" relative="1" as="geometry">
            <mxPoint x="740" y="840" as="sourcePoint" />
            <mxPoint x="790" y="790" as="targetPoint" />
          </mxGeometry>
        </mxCell>
        <mxCell id="7_Y2e456IkaExxH9OMLO-171" value="" style="endArrow=none;html=1;rounded=0;exitX=0.883;exitY=0.997;exitDx=0;exitDy=0;exitPerimeter=0;" parent="1" source="7_Y2e456IkaExxH9OMLO-164" edge="1">
          <mxGeometry width="50" height="50" relative="1" as="geometry">
            <mxPoint x="670" y="795" as="sourcePoint" />
            <mxPoint x="760" y="910" as="targetPoint" />
          </mxGeometry>
        </mxCell>
        <mxCell id="7_Y2e456IkaExxH9OMLO-172" value="" style="endArrow=none;html=1;rounded=0;" parent="1" source="7_Y2e456IkaExxH9OMLO-166" target="7_Y2e456IkaExxH9OMLO-164" edge="1">
          <mxGeometry width="50" height="50" relative="1" as="geometry">
            <mxPoint x="720" y="810" as="sourcePoint" />
            <mxPoint x="660" y="890" as="targetPoint" />
          </mxGeometry>
        </mxCell>
        <mxCell id="7_Y2e456IkaExxH9OMLO-173" value="" style="endArrow=none;html=1;rounded=0;exitX=1;exitY=1;exitDx=0;exitDy=0;entryX=0;entryY=0.25;entryDx=0;entryDy=0;" parent="1" source="7_Y2e456IkaExxH9OMLO-169" target="7_Y2e456IkaExxH9OMLO-164" edge="1">
          <mxGeometry width="50" height="50" relative="1" as="geometry">
            <mxPoint x="645" y="770" as="sourcePoint" />
            <mxPoint x="690" y="810" as="targetPoint" />
          </mxGeometry>
        </mxCell>
        <mxCell id="7_Y2e456IkaExxH9OMLO-174" value="" style="endArrow=none;html=1;rounded=0;exitX=1;exitY=0.5;exitDx=0;exitDy=0;entryX=0;entryY=0.5;entryDx=0;entryDy=0;" parent="1" source="7_Y2e456IkaExxH9OMLO-165" target="7_Y2e456IkaExxH9OMLO-164" edge="1">
          <mxGeometry width="50" height="50" relative="1" as="geometry">
            <mxPoint x="613" y="794" as="sourcePoint" />
            <mxPoint x="660" y="810" as="targetPoint" />
          </mxGeometry>
        </mxCell>
        <mxCell id="7_Y2e456IkaExxH9OMLO-175" value="user_id" style="ellipse;whiteSpace=wrap;html=1;fontStyle=0" parent="1" vertex="1">
          <mxGeometry x="485" y="790" width="90" height="40" as="geometry" />
        </mxCell>
        <mxCell id="7_Y2e456IkaExxH9OMLO-176" value="check_in" style="ellipse;whiteSpace=wrap;html=1;fontStyle=0" parent="1" vertex="1">
          <mxGeometry x="800" y="910" width="90" height="40" as="geometry" />
        </mxCell>
        <mxCell id="7_Y2e456IkaExxH9OMLO-177" value="" style="endArrow=none;html=1;rounded=0;exitX=1;exitY=1;exitDx=0;exitDy=0;entryX=0;entryY=0;entryDx=0;entryDy=0;" parent="1" source="7_Y2e456IkaExxH9OMLO-175" target="7_Y2e456IkaExxH9OMLO-164" edge="1">
          <mxGeometry width="50" height="50" relative="1" as="geometry">
            <mxPoint x="587" y="884" as="sourcePoint" />
            <mxPoint x="630" y="855" as="targetPoint" />
          </mxGeometry>
        </mxCell>
        <mxCell id="7_Y2e456IkaExxH9OMLO-178" value="" style="endArrow=none;html=1;rounded=0;exitX=0;exitY=0;exitDx=0;exitDy=0;entryX=1;entryY=0.75;entryDx=0;entryDy=0;" parent="1" source="7_Y2e456IkaExxH9OMLO-176" target="7_Y2e456IkaExxH9OMLO-164" edge="1">
          <mxGeometry width="50" height="50" relative="1" as="geometry">
            <mxPoint x="607" y="834" as="sourcePoint" />
            <mxPoint x="740" y="883" as="targetPoint" />
          </mxGeometry>
        </mxCell>
        <mxCell id="7_Y2e456IkaExxH9OMLO-179" value="total_price" style="ellipse;whiteSpace=wrap;html=1;fontStyle=0" parent="1" vertex="1">
          <mxGeometry x="790" y="810" width="80" height="40" as="geometry" />
        </mxCell>
        <mxCell id="7_Y2e456IkaExxH9OMLO-180" value="" style="endArrow=none;html=1;rounded=0;exitX=0.997;exitY=0.13;exitDx=0;exitDy=0;entryX=0;entryY=1;entryDx=0;entryDy=0;exitPerimeter=0;" parent="1" source="7_Y2e456IkaExxH9OMLO-164" target="7_Y2e456IkaExxH9OMLO-179" edge="1">
          <mxGeometry width="50" height="50" relative="1" as="geometry">
            <mxPoint x="750" y="855" as="sourcePoint" />
            <mxPoint x="800" y="877" as="targetPoint" />
          </mxGeometry>
        </mxCell>
        <mxCell id="1fL14fTM2-814Uq3JeYz-8" style="edgeStyle=orthogonalEdgeStyle;rounded=0;orthogonalLoop=1;jettySize=auto;html=1;exitX=0;exitY=0.5;exitDx=0;exitDy=0;entryX=1;entryY=0.5;entryDx=0;entryDy=0;" edge="1" parent="1" source="uFJ8NuCEC3rtq5b0tR9Z-1" target="1fL14fTM2-814Uq3JeYz-6">
          <mxGeometry relative="1" as="geometry" />
        </mxCell>
        <mxCell id="uFJ8NuCEC3rtq5b0tR9Z-1" value="Makes" style="rhombus;whiteSpace=wrap;html=1;" parent="1" vertex="1">
          <mxGeometry x="640" y="660" width="80" height="80" as="geometry" />
        </mxCell>
        <mxCell id="uFJ8NuCEC3rtq5b0tR9Z-4" value="Assigned" style="rhombus;whiteSpace=wrap;html=1;" parent="1" vertex="1">
          <mxGeometry x="430" y="660" width="80" height="80" as="geometry" />
        </mxCell>
        <mxCell id="uFJ8NuCEC3rtq5b0tR9Z-7" value="Handles" style="rhombus;whiteSpace=wrap;html=1;" parent="1" vertex="1">
          <mxGeometry x="740" y="660" width="90" height="80" as="geometry" />
        </mxCell>
        <mxCell id="uFJ8NuCEC3rtq5b0tR9Z-13" style="edgeStyle=orthogonalEdgeStyle;rounded=0;orthogonalLoop=1;jettySize=auto;html=1;exitX=1;exitY=0.5;exitDx=0;exitDy=0;entryX=0.5;entryY=1;entryDx=0;entryDy=0;curved=1;endArrow=none;startFill=0;" parent="1" source="uFJ8NuCEC3rtq5b0tR9Z-11" target="7_Y2e456IkaExxH9OMLO-131" edge="1">
          <mxGeometry relative="1" as="geometry" />
        </mxCell>
        <mxCell id="uFJ8NuCEC3rtq5b0tR9Z-11" value="Has" style="rhombus;whiteSpace=wrap;html=1;" parent="1" vertex="1">
          <mxGeometry x="860" y="690" width="90" height="80" as="geometry" />
        </mxCell>
        <mxCell id="0br5o0k4zz4KMCKoNXtZ-3" value="document_type" style="ellipse;whiteSpace=wrap;html=1;fontStyle=0" parent="1" vertex="1">
          <mxGeometry x="605" y="380" width="110" height="40" as="geometry" />
        </mxCell>
        <mxCell id="0br5o0k4zz4KMCKoNXtZ-4" style="rounded=0;orthogonalLoop=1;jettySize=auto;html=1;exitX=0.61;exitY=0.01;exitDx=0;exitDy=0;entryX=0.5;entryY=1;entryDx=0;entryDy=0;endArrow=none;startFill=0;exitPerimeter=0;" parent="1" source="7_Y2e456IkaExxH9OMLO-110" target="0br5o0k4zz4KMCKoNXtZ-3" edge="1">
          <mxGeometry relative="1" as="geometry" />
        </mxCell>
        <mxCell id="1fL14fTM2-814Uq3JeYz-6" value="start_from" style="ellipse;whiteSpace=wrap;html=1;fontStyle=0" vertex="1" parent="1">
          <mxGeometry x="520" y="680" width="90" height="40" as="geometry" />
        </mxCell>
      </root>
    </mxGraphModel>
  </diagram>
</mxfile>
